<?xml version="1.0" encoding="utf-8"?>
<!-- Generator: Adobe Illustrator 28.0.0, SVG Export Plug-In . SVG Version: 6.00 Build 0)  -->
<svg version="1.1" id="Laag_1" xmlns="http://www.w3.org/2000/svg" xmlns:xlink="http://www.w3.org/1999/xlink" x="0px" y="0px"
	 viewBox="0 0 130 24" style="enable-background:new 0 0 130 24;" xml:space="preserve">
<style type="text/css">
	.st0{fill:#FFFFFF;}
</style>
<g>
	<g transform="translate(-40 -27)">
		<g>
			<g>
				<g>
					<path id="_x36_36oa" class="st0" d="M156.6,29.6c-5,0-9,4-9,8.9c0,0.1,0,0.2,0,0.2h0v4.6h5.1v-4.6c0-0.1,0-0.2,0-0.3
						c0-2.2,1.8-3.9,3.9-3.9c1.6,0,3,0.9,3.6,2.3c0.1,0.2,0.2,0.3,0.3,0.5l4.3-2.6C163.4,31.6,160.2,29.6,156.6,29.6"/>
				</g>
			</g>
			<g>
				<g>
					<path id="_x36_36ob" class="st0" d="M165.2,37.5c0,0-0.8,4-0.1,5.3c0.6,1.3,2.2,1.8,3.4,1.1c1.2-0.7,1.7-2.3,1-3.6
						C168.9,39,165.2,37.5,165.2,37.5"/>
				</g>
			</g>
			<g>
				<g>
					<path id="_x36_36oc" class="st0" d="M134.9,42.5c-0.1,0-0.1,0-0.1,0C134.8,42.5,134.8,42.5,134.9,42.5"/>
				</g>
			</g>
			<g>
				<g>
					<path id="_x36_36od" class="st0" d="M135.1,42.6c-0.1,0-0.3,0-0.4-0.1C134.8,42.5,135,42.6,135.1,42.6"/>
				</g>
			</g>
			<g>
				<g>
					<path id="_x36_36oe" class="st0" d="M135.1,29.6c-5,0-9,4.1-9,9c0,4.9,4,9,8.9,9h1.8v-4.9c-0.7,0-1.4-0.1-2.1-0.1
						c-0.1,0-0.2,0-0.4,0c0,0-0.1,0-0.1,0l-0.1,0c-1.8-0.4-3.1-2-3.1-3.9c0-2.2,1.8-4,4-4c0.9,0,1.6,0.3,2.2,0.7
						c0.9,0.6,1.5,1.6,1.5,2.7c0,1.5-1,2.8-2.5,3.1v0.1c0.4,0,1,0,1.8,0h5.7l0,0c0.2-0.8,0.4-1.7,0.4-2.6
						C144.2,33.6,140.1,29.6,135.1,29.6"/>
				</g>
			</g>
			<g>
				<g>
					<path id="_x36_36of" class="st0" d="M135,42.5c-0.1,0-0.2,0-0.3,0C134.8,42.5,134.9,42.5,135,42.5"/>
				</g>
			</g>
			<g>
				<g>
					<path id="_x36_36og" class="st0" d="M134.7,42.5"/>
				</g>
			</g>
			<g>
				<g>
					<path id="_x36_36oh" class="st0" d="M59.8,38.6c0-0.1,0-0.2,0-0.4V27h-5.1v3.4c-1.2-0.6-2.6-0.9-3.9-0.9c-5,0-9,4.1-9,9.1
						c0,5,4,9.1,9,9.1C55.8,47.7,59.8,43.6,59.8,38.6 M46.8,38.6c0-2.2,1.8-4,3.9-4c2.2,0,3.9,1.8,3.9,4s-1.8,4-3.9,4
						C48.6,42.6,46.8,40.8,46.8,38.6"/>
				</g>
			</g>
			<g>
				<g>
					<path id="_x36_36oi" class="st0" d="M80.5,38.6c0-5-4-9-9-9s-9,4-9,9c0,5,4,9,9,9c0,0,0,0,0,0C76.4,47.7,80.5,43.6,80.5,38.6
						 M67.5,38.7c0-2.2,1.8-3.9,3.9-3.9c2.2,0,3.9,1.8,3.9,3.9c0,0,0,0,0,0c0,2.2-1.8,3.9-3.9,3.9S67.5,40.8,67.5,38.7L67.5,38.7"/>
				</g>
			</g>
			<g>
				<g>
					<path id="_x36_36oj" class="st0" d="M89,46.9c1.2,0.6,2.6,0.9,3.9,0.9c5,0,9-4.1,9-9.1s-4-9.1-9-9.1c-5,0-9,4.1-9,9.1
						c0,0.1,0,0.2,0,0.3v11.2H89L89,46.9z M89,38.7c0-2.2,1.8-4,3.9-4c2.2,0,3.9,1.8,3.9,4c0,2.2-1.8,4-3.9,4
						C90.8,42.6,89,40.9,89,38.7z"/>
				</g>
			</g>
			<g>
				<g>
					<path id="_x36_36ok" class="st0" d="M110.5,46.9c1.2,0.6,2.6,0.9,3.9,0.9c5,0,9-4.1,9-9.1s-4-9.1-9-9.1c-5,0-9,4.1-9,9.1
						c0,0.1,0,0.2,0,0.3v11.2h5.1V46.9z M110.5,38.7c0-2.2,1.8-4,3.9-4c2.2,0,3.9,1.8,3.9,4c0,2.2-1.8,4-3.9,4
						C112.3,42.6,110.5,40.9,110.5,38.7z"/>
				</g>
			</g>
			<g>
				<g>
					<path id="_x36_36ol" class="st0" d="M41.3,29.6c0.7,0,1.3,0.6,1.3,1.3c0,0,0,0,0,0c0,0.7-0.6,1.3-1.3,1.3
						c-0.7,0-1.3-0.6-1.3-1.3c0,0,0,0,0,0C40,30.2,40.6,29.6,41.3,29.6L41.3,29.6L41.3,29.6z M41.3,29.8c-0.6,0-1,0.5-1,1.1
						c0,0.6,0.5,1.1,1,1.1c0.6,0,1-0.5,1-1.1S41.9,29.8,41.3,29.8L41.3,29.8z M41.1,31.6h-0.2v-1.4c0.1,0,0.2,0,0.4,0
						c0.2,0,0.4,0,0.5,0.1c0.1,0.1,0.1,0.2,0.1,0.3c0,0.2-0.1,0.3-0.3,0.3v0c0.1,0,0.2,0.1,0.2,0.3c0,0.2,0.1,0.3,0.1,0.4h-0.2
						c0,0-0.1-0.2-0.1-0.4c0-0.2-0.1-0.2-0.3-0.2h-0.2V31.6z M41.1,30.8h0.2c0.2,0,0.4-0.1,0.4-0.2c0-0.1-0.1-0.2-0.4-0.2
						c-0.1,0-0.1,0-0.2,0V30.8z"/>
				</g>
			</g>
		</g>
	</g>
</g>
</svg>
