<?xml version="1.0" encoding="UTF-8"?>
<svg id="Laag_1" data-name="Laag 1" xmlns="http://www.w3.org/2000/svg" viewBox="0 0 38.83 45.07">
  <defs>
    <style>
      .cls-1 {
        fill: #3e0f49;
      }

      .cls-1, .cls-2, .cls-3, .cls-4 {
        stroke-width: 0px;
      }

      .cls-2 {
        fill: #fff;
      }

      .cls-3 {
        fill: #feffff;
      }

      .cls-4 {
        fill: #f5f9fb;
      }
    </style>
  </defs>
  <path class="cls-4" d="m34.99,22.75c.18-9.23-7.3-17.48-17.53-17.47C7.64,5.29.02,13.11,0,22.62c-.02,9.64,7.8,17.46,17.45,17.47,9.8.02,17.73-8,17.53-17.34h0Z"/>
  <path class="cls-3" d="m38.82.24c-.08-.08-.15-.15-.23-.23.2-.04.27.03.23.23Z"/>
  <path class="cls-3" d="m38.59,45.06l.23-.23c.04.19-.03.27-.23.23Z"/>
  <path class="cls-2" d="m34.99,22.75c.2,9.34-7.74,17.35-17.53,17.34C7.8,40.08-.02,32.25,0,22.62.02,13.11,7.64,5.29,17.46,5.28c10.23,0,17.71,8.24,17.53,17.47Zm-13.25-1.37c-.55.34-.97.22-1.37.22-3.59.01-7.18,0-10.78,0-.73,0-1.31.24-1.35,1.04-.04.82.57,1.07,1.26,1.15.3.03.6.02.91.02,3.33,0,6.65,0,9.98.01.38,0,.82-.19,1.28.35-1.01.96-2.03,1.9-3.03,2.86-.57.55-.87,1.25-.21,1.87.62.58,1.23.25,1.77-.29,1.78-1.79,3.56-3.58,5.38-5.32.51-.49.48-.77-.01-1.25-1.77-1.7-3.5-3.43-5.22-5.17-.58-.59-1.22-1.06-1.93-.35-.7.7-.25,1.35.36,1.92.99.94,1.95,1.92,2.96,2.93h0Z"/>
  <path class="cls-1" d="m21.74,21.39c-1.01-1.01-1.97-1.99-2.96-2.93-.61-.58-1.06-1.22-.36-1.92.71-.71,1.35-.24,1.93.35,1.72,1.74,3.45,3.47,5.22,5.17.49.47.53.76.01,1.25-1.82,1.75-3.6,3.54-5.38,5.32-.54.54-1.15.88-1.77.29-.66-.62-.36-1.31.21-1.87,1-.96,2.01-1.91,3.03-2.86-.46-.54-.9-.35-1.28-.35-3.33-.02-6.65,0-9.98-.01-.3,0-.61.02-.91-.02-.7-.08-1.3-.33-1.26-1.15.04-.8.63-1.04,1.35-1.04h10.78c.4,0,.82.12,1.37-.22h0Z"/>
</svg>