<?xml version="1.0" encoding="UTF-8"?>
<svg id="Laag_1" data-name="Laag 1" xmlns="http://www.w3.org/2000/svg" viewBox="0 0 384.41 30.82">
  <defs>
    <style>
      .cls-1 {
        fill: #213263;
        stroke-width: 0px;
      }
    </style>
  </defs>
  <path class="cls-1" d="m109,23.71c.28,0,9.49,5.21,12.11,6.81.01,0,.03-.01.04-.02,1.39-.58,11.3-6.75,11.82-6.75s11.3,6.76,11.85,6.76c.55-.01,11.53-6.8,12.05-6.82.51,0,11.44,6.76,11.99,6.76.57,0,11.45-7.07,12.04-7.08.54.03,11.14,7.03,11.68,7.03.51-.01,11.64-6.74,12.21-6.75.55,0,11.45,6.7,11.96,6.69s11.42-6.74,11.96-6.74,11.36,6.7,11.9,6.7c.5,0,11.57-6.81,12.11-6.82.51.02,11.25,6.77,11.82,6.77.55-.01,11.57-6.81,12.1-6.82.52,0,11.13,6.77,11.69,6.77.54-.01,11.73-6.8,12.24-6.82.51,0,11.54,6.77,12.1,6.76.53,0,11.29-7.07,11.8-7.09.54,0,11.26,7.05,11.81,7.05.52-.01,11.66-6.74,12.22-6.75.55,0,11.4,6.7,11.93,6.7s11.53-6.74,12.19-6.75c.48.02,7.99,4.35,11.79,6.7l-.06-30S19.67.76,9.35.78L0,30.8l13.38-6.82c.52,0,11.13,6.77,11.69,6.77.54-.01,11.73-6.8,12.24-6.82.51,0,11.54,6.77,12.1,6.76.53,0,11.29-7.07,11.8-7.09.54,0,11.26,7.05,11.81,7.05.52-.01,11.66-6.74,12.22-6.75.55,0,23.23-.2,23.76-.2"/>
  <line class="cls-1" x1="101.08" y1="30.45" x2="108.1" y2="24.7"/>
  <path class="cls-1" d="m121.15,30.82s-.03-.02-.04-.03c.01,0,.03-.01.04-.02v.05Z"/>
  <polyline class="cls-1" points="85.24 23.86 96.49 30.55 109 23.66"/>
</svg>