<?xml version="1.0" encoding="UTF-8"?>
<svg id="Laag_1" data-name="Laag 1" xmlns="http://www.w3.org/2000/svg" viewBox="0 0 384.48 30.84">
  <defs>
    <style>
      .cls-1 {
        fill: #323366;
        stroke-width: 0px;
      }
    </style>
  </defs>
  <path class="cls-1" d="m275.45,7.49c-.28-.01-9.47-5.25-12.08-6.87-.01,0-.03,0-.04.02-1.39.58-11.33,6.7-11.85,6.7s-11.27-6.81-11.82-6.81c-.55,0-11.56,6.75-12.08,6.76-.51,0-11.41-6.81-11.96-6.82-.57,0-11.48,7.02-12.07,7.02-.54-.03-11.11-7.07-11.65-7.08-.51,0-11.67,6.69-12.24,6.69-.55-.01-11.42-6.75-11.93-6.75s-11.45,6.69-11.99,6.69-11.33-6.75-11.87-6.75c-.5,0-11.6,6.76-12.14,6.76-.51-.02-11.22-6.82-11.79-6.82-.55,0-11.6,6.76-12.13,6.76-.52-.01-11.1-6.81-11.66-6.82-.54,0-11.76,6.75-12.27,6.76-.51,0-11.51-6.82-12.07-6.82-.53,0-11.32,7.02-11.83,7.04-.54,0-11.23-7.1-11.78-7.1-.52,0-11.69,6.69-12.25,6.69-.55-.01-11.37-6.75-11.9-6.75s-11.56,6.69-12.22,6.69c-.48-.02-7.97-4.39-11.76-6.75l-.07,30s364.68.82,375,.84l9.48-29.98-13.41,6.76c-.52-.01-11.1-6.81-11.66-6.82-.54,0-11.76,6.75-12.27,6.76-.51,0-11.51-6.82-12.07-6.82-.53,0-11.32,7.02-11.83,7.04-.54,0-11.23-7.1-11.78-7.1-.52,0-11.69,6.69-12.25,6.69-.55-.01-23.23.1-23.76.1"/>
  <path class="cls-1" d="m263.33.33s.03.02.04.03c-.01,0-.03,0-.04.02v-.05Z"/>
  <polyline class="cls-1" points="299.21 7.43 287.99 .7 275.45 7.54"/>
</svg>